# xmcd
#
# Track frame offsets: 
#        182
#        19915
#        42602
#        57387
#        74795
#        91367
#        108197
#        123295
#        142235
#        155497
#        172615
#        188622
#
# Disc length: 2711 seconds
#
# Revision: 9
# Processed by: cddbd v1.5.2PL0 Copyright (c) Steve Scherf et al.
# Submitted via: ExactAudioCopy v1.1
#
DISCID=a80a950c
DTITLE=Jimmie Dale Gilmore - Spinning Around the Sun
DYEAR=1993
DGENRE=Country
TTITLE0=Where Are You Going
TTITLE1=Santa Fe Thief
TTITLE2=I Was The One
TTITLE3=So I'll Run
TTITLE4=I'm So Lonesome I Could Cry
TTITLE5=Mobile Line (France Blues)
TTITLE6=Nothing Of The Kind
TTITLE7=Just A Wave
TTITLE8=Jimmie Dale Gilmore and Lucinda Williams - Reunion
TTITLE9=I'm Gonna Love You
TTITLE10=Another Colorado
TTITLE11=Thinking About You
EXTD=YEAR: 1993
EXTT0=
EXTT1=
EXTT2=
EXTT3=
EXTT4=
EXTT5=
EXTT6=
EXTT7=
EXTT8=duet with Lucinda Williams
EXTT9=
EXTT10=
EXTT11=
PLAYORDER=
